<?xml version="1.0" encoding="UTF-8"?>
<!DOCTYPE svg PUBLIC "-//W3C//DTD SVG 1.1//EN" "http://www.w3.org/Graphics/SVG/1.1/DTD/svg11.dtd">
<!-- Creator: CorelDRAW -->
<svg xmlns="http://www.w3.org/2000/svg" xml:space="preserve" width="95.9216mm" height="67.8522mm" version="1.1" style="shape-rendering:geometricPrecision; text-rendering:geometricPrecision; image-rendering:optimizeQuality; fill-rule:evenodd; clip-rule:evenodd"
viewBox="0 0 3589.06 2538.8"
 xmlns:xlink="http://www.w3.org/1999/xlink"
 xmlns:xodm="http://www.corel.com/coreldraw/odm/2003">
 <defs>
  <style type="text/css">
   <![CDATA[
    .fil0 {fill:white;fill-rule:nonzero}
   ]]>
  </style>
 </defs>
 <g id="Layer_x0020_1">
  <metadata id="CorelCorpID_0Corel-Layer"/>
  <path class="fil0" d="M3248.43 131.35c0,-65.58 -48.37,-121.1 -113.29,-130.09 -64.91,-9 -126.59,31.24 -144.39,94.36l-385.85 1364.72 0 -703.07c0,-60.28 -41.02,-112.82 -99.52,-127.38 -58.5,-14.62 -119.37,12.51 -147.69,65.71l-469.82 882.73 -200.1 -526.27c-18.66,-49.03 -64.65,-82.25 -116.99,-84.5 -52.34,-2.31 -101.11,26.8 -123.94,73.98l-170.19 351.71 -43.15 -113.55c-15.62,-41.03 -50.69,-71.53 -93.43,-81.33 -42.82,-9.79 -87.68,2.45 -119.51,32.62l-130.95 123.94 -160.07 -107.06c-60.28,-40.3 -141.81,-24.16 -182.17,36.13 -40.3,60.28 -24.15,141.81 36.13,182.17l247.15 165.36c50.95,34.08 118.71,28.39 163.25,-13.77l64.05 -60.61 81.46 214.2c18.66,49.03 64.65,82.25 116.99,84.5 52.41,2.32 101.11,-26.8 123.94,-73.98l170.13 -351.7 194.61 511.84c18.26,48.17 63.06,81.13 114.48,84.37 51.41,3.24 99.98,-23.89 124.14,-69.35l358.45 -673.5 0 1123.92c0,65.58 48.37,121.1 113.29,130.09 64.91,9 126.52,-31.3 144.39,-94.36l385.84 -1364.72 0 646.23c0,42.22 20.32,81.86 54.53,106.54 34.28,24.68 78.28,31.37 118.38,18l340.72 -113.82c68.82,-22.96 105.94,-97.34 82.98,-166.16 -22.96,-68.82 -97.34,-105.94 -166.16,-82.98l-167.81 56.05 0 -1410.91 0.13 -0.07zm-3117.15 1094.22c-72.52,0 -131.28,58.76 -131.28,131.28 0,72.52 58.76,131.28 131.28,131.28l87.55 0.07c72.52,0 131.28,-58.76 131.28,-131.28 0,-72.52 -58.76,-131.29 -131.28,-131.29l-87.55 -0.06z"/>
 </g>
</svg>
