<?xml version="1.0" encoding="UTF-8"?>
<!DOCTYPE svg PUBLIC "-//W3C//DTD SVG 1.1//EN" "http://www.w3.org/Graphics/SVG/1.1/DTD/svg11.dtd">
<!-- Creator: CorelDRAW -->
<svg xmlns="http://www.w3.org/2000/svg" xml:space="preserve" width="80.5534mm" height="78.6986mm" version="1.1" style="shape-rendering:geometricPrecision; text-rendering:geometricPrecision; image-rendering:optimizeQuality; fill-rule:evenodd; clip-rule:evenodd"
viewBox="0 0 3408.88 3330.39"
 xmlns:xlink="http://www.w3.org/1999/xlink"
 xmlns:xodm="http://www.corel.com/coreldraw/odm/2003">
 <defs>
  <style type="text/css">
   <![CDATA[
    .fil0 {fill:white}
   ]]>
  </style>
 </defs>
 <g id="Layer_x0020_1">
  <metadata id="CorelCorpID_0Corel-Layer"/>
  <path class="fil0" d="M2466.69 26.05c1536.13,-222.03 553.01,1038.32 75.09,1390.95 327.71,241.63 662.25,581.2 805.63,966.48 266.27,705.28 -389.16,809.76 -880.72,633.45 -539.37,-182.85 -1017.28,-574.67 -1331.33,-1031.78 -88.76,0 -184.34,-13.07 -273.09,-39.18 177.51,483.23 252.61,979.54 204.82,1384.42 0,-816.29 -402.81,-1626.05 -983.14,-2298.66 -204.82,-235.09 6.83,-411.41 191.17,-182.84 124.09,165.52 238.07,337.78 341.36,515.89 197.99,-666.09 1181.12,-1247.29 1850.21,-1338.71l0 -0zm-218.45 1201.56c300.39,-176.32 1215.26,-1123.21 361.84,-1038.32 -491.56,52.24 -1085.54,489.77 -1331.33,770.57 341.36,-39.18 689.55,104.48 969.49,267.74zm-976.32 -58.75c232.12,-19.59 484.75,97.95 675.91,215.5 -184.34,84.89 -389.16,137.13 -600.81,150.2 -314.05,0 -375.5,-339.57 -75.1,-365.7l0 0zm129.67 790.13c273.1,293.86 648.6,581.2 1051.41,685.69 232.12,58.77 491.56,32.65 395.98,-287.34 -95.58,-293.86 -341.36,-555.07 -580.31,-750.99 -68.28,45.72 -143.38,91.42 -218.48,124.09 -204.82,111.01 -423.29,189.37 -648.6,228.55l0 0z"/>
 </g>
</svg>
