<?xml version="1.0" encoding="UTF-8"?>
<!DOCTYPE svg PUBLIC "-//W3C//DTD SVG 1.1//EN" "http://www.w3.org/Graphics/SVG/1.1/DTD/svg11.dtd">
<!-- Creator: CorelDRAW -->
<svg xmlns="http://www.w3.org/2000/svg" xml:space="preserve" width="23.9774mm" height="21.186mm" version="1.1" style="shape-rendering:geometricPrecision; text-rendering:geometricPrecision; image-rendering:optimizeQuality; fill-rule:evenodd; clip-rule:evenodd"
viewBox="0 0 4031.44 3562.11"
 xmlns:xlink="http://www.w3.org/1999/xlink"
 xmlns:xodm="http://www.corel.com/coreldraw/odm/2003">
 <defs>
  <style type="text/css">
   <![CDATA[
    .fil0 {fill:#1B0435}
    .fil13 {fill:#CE34B0;fill-rule:nonzero}
    .fil11 {fill:url(#id0)}
    .fil3 {fill:url(#id1)}
    .fil6 {fill:url(#id2)}
    .fil9 {fill:url(#id3)}
    .fil12 {fill:url(#id4)}
    .fil5 {fill:url(#id5)}
    .fil10 {fill:url(#id6)}
    .fil2 {fill:url(#id7)}
    .fil8 {fill:url(#id8)}
    .fil4 {fill:url(#id9)}
    .fil1 {fill:url(#id10)}
    .fil7 {fill:url(#id11)}
   ]]>
  </style>
  <linearGradient id="id0" gradientUnits="userSpaceOnUse" x1="2597.97" y1="2100.28" x2="2597.97" y2="1259.73">
   <stop offset="0" style="stop-opacity:1; stop-color:#F84B72"/>
   <stop offset="1" style="stop-opacity:1; stop-color:#CE34B0"/>
  </linearGradient>
  <linearGradient id="id1" gradientUnits="userSpaceOnUse" x1="3175.72" y1="2447.95" x2="3058.36" y2="2447.95">
   <stop offset="0" style="stop-opacity:1; stop-color:#76018E"/>
   <stop offset="1" style="stop-opacity:1; stop-color:#DA107C"/>
  </linearGradient>
  <linearGradient id="id2" gradientUnits="userSpaceOnUse" xlink:href="#id1" x1="863.66" y1="2447.95" x2="981.02" y2="2447.95">
  </linearGradient>
  <linearGradient id="id3" gradientUnits="userSpaceOnUse" xlink:href="#id0" x1="2305.97" y1="2334.2" x2="2305.97" y2="1025.81">
  </linearGradient>
  <linearGradient id="id4" gradientUnits="userSpaceOnUse" xlink:href="#id0" x1="1433.64" y1="2100.28" x2="1433.64" y2="1259.73">
  </linearGradient>
  <linearGradient id="id5" gradientUnits="userSpaceOnUse" xlink:href="#id0" x1="1138.48" y1="2433.82" x2="693.39" y2="2433.82">
  </linearGradient>
  <linearGradient id="id6" gradientUnits="userSpaceOnUse" xlink:href="#id0" x1="1725.64" y1="2334.2" x2="1725.64" y2="1025.81">
  </linearGradient>
  <linearGradient id="id7" gradientUnits="userSpaceOnUse" xlink:href="#id0" x1="2893.15" y1="2433.82" x2="3338.24" y2="2433.82">
  </linearGradient>
  <linearGradient id="id8" gradientUnits="userSpaceOnUse" xlink:href="#id0" x1="2013.97" y1="2698.31" x2="2013.97" y2="661.7">
  </linearGradient>
  <linearGradient id="id9" gradientUnits="userSpaceOnUse" xlink:href="#id1" x1="268.86" y1="2433.84" x2="917.66" y2="2433.84">
  </linearGradient>
  <linearGradient id="id10" gradientUnits="userSpaceOnUse" xlink:href="#id1" x1="3762.76" y1="2433.84" x2="3113.96" y2="2433.84">
  </linearGradient>
  <linearGradient id="id11" gradientUnits="userSpaceOnUse" x1="1137.58" y1="359.02" x2="2892.49" y2="359.02">
   <stop offset="0" style="stop-opacity:1; stop-color:#2F006B"/>
   <stop offset="0.529412" style="stop-opacity:1; stop-color:#5A007A"/>
   <stop offset="1" style="stop-opacity:1; stop-color:#2F006B"/>
  </linearGradient>
 </defs>
 <g id="Layer_x0020_1">
  <metadata id="CorelCorpID_0Corel-Layer"/>
  <g id="_2569168162448">
   <g>
    <path class="fil0" d="M793.83 2638.88l-190.83 5.94 -17.05 -927.32c0,-898.04 604.16,-1627.11 1430.85,-1627.11 826.69,0 1428.9,729.07 1428.9,1627.11l-4.35 1048.54 -180.27 -25.78 -23.89 -1022.77c0,-660.82 -612.06,-1460.25 -1220.37,-1460.25 -608.31,0 -1238.94,799.43 -1238.94,1460.25l15.97 921.38z"/>
    <path class="fil1" d="M3113.98 1877.29l330.28 0c148.31,0 275.25,106.45 301.05,252.51 36.32,202.4 36.01,406.89 -2.47,613.63 -25.76,142.61 -149.89,246.33 -294.79,246.33 -156.16,0.61 -334.07,0.61 -334.07,0.61l0 -1113.07z"/>
    <path class="fil2" d="M3115.69 1877.14c-122.84,0 -222.54,249.45 -222.54,556.7 0,307.22 99.7,556.68 222.54,556.68 122.82,0 222.56,-249.46 222.56,-556.68 0,-307.25 -99.74,-556.7 -222.56,-556.7z"/>
    <path class="fil3" d="M3117.04 2217.99c32.38,0 58.68,103.03 58.68,229.96 0,126.91 -26.3,229.96 -58.68,229.96 -32.38,0 -58.68,-103.05 -58.68,-229.96 0,-126.93 26.3,-229.96 58.68,-229.96z"/>
    <path class="fil4" d="M917.66 1877.29l-330.32 0c-148.31,0 -275.22,106.45 -301.06,252.51 -36.3,202.4 -35.98,406.89 2.49,613.63 25.78,142.61 149.91,246.33 294.81,246.33 156.18,0.61 334.08,0.61 334.08,0.61l0 -1113.07z"/>
    <path class="fil5" d="M915.93 1877.14c122.84,0 222.56,249.45 222.56,556.7 0,307.22 -99.72,556.68 -222.56,556.68 -122.82,0 -222.54,-249.46 -222.54,-556.68 0,-307.25 99.72,-556.7 222.54,-556.7z"/>
    <path class="fil6" d="M922.32 2217.99c32.38,0 58.68,103.03 58.68,229.96 0,126.91 -26.3,229.96 -58.68,229.96 -32.38,0 -58.68,-103.05 -58.68,-229.96 0,-126.93 26.3,-229.96 58.68,-229.96z"/>
    <path class="fil7" d="M2904.5 559.81c53.27,-123.01 -0.86,-276.62 -146.6,-357.71 -481.94,-272.48 -1073.04,-264.34 -1494.25,-6.27 -138.83,83.55 -188.23,232.51 -136.63,352.18 3.11,7.77 6.32,15.52 9.53,23.29 16.21,38.87 53.21,65.52 96.27,72.15 43.21,6.57 86.77,-7.58 117.71,-38.25 342.14,-352.6 950.05,-346.91 1334.55,18.66 31.04,28.58 73.51,41.01 115.22,33.69 41.56,-7.41 77.06,-33.76 92.83,-71.63 4.1,-8.54 7.72,-17.33 11.35,-26.11z"/>
    <polygon class="fil8" points="1923.35,2698.33 2104.61,2698.33 2104.61,661.68 1923.35,661.68 "/>
    <polygon class="fil9" points="2215.36,2334.2 2396.6,2334.2 2396.6,1025.83 2215.36,1025.83 "/>
    <polygon class="fil10" points="1635.03,2334.2 1816.26,2334.2 1816.26,1025.83 1635.03,1025.83 "/>
    <polygon class="fil11" points="2507.35,2100.26 2688.6,2100.26 2688.6,1259.75 2507.35,1259.75 "/>
    <polygon class="fil12" points="1343.03,2100.26 1524.28,2100.26 1524.28,1259.75 1343.03,1259.75 "/>
   </g>
   <path class="fil13" d="M170.54 3199.74c32.74,0 61.25,5.4 85.53,16.19 24.3,10.79 43.03,26.31 56.17,46.56 13.16,20.24 19.74,43.87 19.74,70.85 0,27 -6.57,50.61 -19.74,70.85 -13.15,20.24 -31.88,35.76 -56.17,46.57 -24.28,10.79 -52.79,16.19 -85.53,16.19l-51.11 0 0 87.04 -119.43 0 0 -354.26 170.54 0zm-7.58 175.11c16.19,0 28.35,-3.63 36.43,-10.9 8.1,-7.25 12.16,-17.45 12.16,-30.62 0,-13.15 -4.05,-23.35 -12.16,-30.62 -8.09,-7.25 -20.24,-10.88 -36.43,-10.88l-43.53 0 0 83.01 43.53 0zm372.47 187.25c-54.32,0 -96.66,-14.68 -127.03,-44.03 -30.37,-29.36 -45.55,-70.52 -45.55,-123.5l0 -194.83 119.44 0 0 191.3c0,25.98 4.64,44.88 13.9,56.68 9.28,11.8 22.7,17.7 40.23,17.7 17.55,0 30.97,-5.9 40.23,-17.7 9.28,-11.8 13.92,-30.7 13.92,-56.68l0 -191.3 117.41 0 0 194.83c0,52.98 -15.18,94.14 -45.55,123.5 -30.37,29.36 -72.7,44.03 -127.03,44.03zm379.06 -97.18l-32.4 0 0 89.08 -119.43 0 0 -354.26 170.54 0c32.74,0 61.25,5.4 85.53,16.19 24.3,10.79 43.03,26.31 56.17,46.56 13.16,20.24 19.74,43.87 19.74,70.85 0,25.3 -5.73,47.41 -17.2,66.3 -11.47,18.9 -28.01,33.91 -49.6,45.04l74.4 109.32 -127.53 0 -60.23 -89.08zm59.72 -131.58c0,-13.15 -4.05,-23.35 -12.16,-30.62 -8.09,-7.25 -20.24,-10.88 -36.43,-10.88l-43.53 0 0 83.01 43.53 0c16.19,0 28.35,-3.63 36.43,-10.9 8.1,-7.25 12.16,-17.45 12.16,-30.62zm336.03 -133.6c32.74,0 61.25,5.4 85.53,16.19 24.3,10.79 43.03,26.31 56.17,46.56 13.16,20.24 19.74,43.87 19.74,70.85 0,27 -6.57,50.61 -19.74,70.85 -13.15,20.24 -31.88,35.76 -56.17,46.57 -24.28,10.79 -52.79,16.19 -85.53,16.19l-51.11 0 0 87.04 -119.43 0 0 -354.26 170.54 0zm-7.58 175.11c16.19,0 28.35,-3.63 36.43,-10.9 8.1,-7.25 12.16,-17.45 12.16,-30.62 0,-13.15 -4.05,-23.35 -12.16,-30.62 -8.09,-7.25 -20.24,-10.88 -36.43,-10.88l-43.53 0 0 83.01 43.53 0zm208 -175.11l119.43 0 0 261.65 159.93 0 0 92.61 -279.36 0 0 -354.26zm606.8 264.17l0 90.09 -294.54 0 0 -354.26 287.96 0 0 90.09 -170.56 0 0 41.5 149.81 0 0 86.03 -149.81 0 0 46.56 177.13 0zm274.8 -171.56l-103.76 0 0 -92.61 326.94 0 0 92.61 -103.74 0 0 261.65 -119.44 0 0 -261.65zm548.59 171.56l0 90.09 -294.54 0 0 -354.26 287.96 0 0 90.09 -170.56 0 0 41.5 149.81 0 0 86.03 -149.81 0 0 46.56 177.13 0zm340.59 0l0 90.09 -294.54 0 0 -354.26 287.96 0 0 90.09 -170.56 0 0 41.5 149.81 0 0 86.03 -149.81 0 0 46.56 177.13 0zm395.25 -264.17l0 354.26 -98.19 0 -134.61 -160.94 0 160.94 -116.4 0 0 -354.26 98.17 0 134.63 160.94 0 -160.94 116.4 0zm189.77 362.36c-29.36,0 -57.96,-3.3 -85.78,-9.87 -27.84,-6.59 -50.69,-15.43 -68.58,-26.58l38.47 -87.04c16.86,9.79 35.76,17.64 56.68,23.54 20.92,5.9 40.99,8.86 60.23,8.86 16.53,0 28.35,-1.61 35.43,-4.81 7.08,-3.21 10.63,-8.02 10.63,-14.43 0,-7.43 -4.64,-13 -13.92,-16.71 -9.26,-3.7 -24.53,-7.75 -45.8,-12.14 -27.32,-5.73 -50.1,-11.89 -68.31,-18.48 -18.23,-6.57 -34.08,-17.37 -47.58,-32.38 -13.48,-15.01 -20.24,-35.34 -20.24,-60.98 0,-22.26 6.25,-42.5 18.73,-60.73 12.49,-18.23 31.12,-32.55 55.92,-43.03 24.8,-10.46 54.91,-15.69 90.34,-15.69 24.3,0 48.17,2.62 71.61,7.85 23.45,5.23 44.12,12.9 61.99,23.02l-35.93 86.56c-34.75,-17.55 -67.64,-26.33 -98.68,-26.33 -30.7,0 -46.05,7.43 -46.05,22.28 0,7.08 4.56,12.39 13.65,15.94 9.11,3.55 24.13,7.33 45.04,11.38 27,5.06 49.77,10.88 68.33,17.47 18.55,6.57 34.67,17.28 48.32,32.13 13.67,14.85 20.5,35.09 20.5,60.73 0,22.26 -6.24,42.42 -18.71,60.48 -12.49,18.06 -31.12,32.38 -55.92,43.01 -24.8,10.64 -54.91,15.96 -90.34,15.96z"/>
  </g>
 </g>
</svg>
