<?xml version="1.0" encoding="UTF-8"?>
<!DOCTYPE svg PUBLIC "-//W3C//DTD SVG 1.1//EN" "http://www.w3.org/Graphics/SVG/1.1/DTD/svg11.dtd">
<!-- Creator: CorelDRAW -->
<svg xmlns="http://www.w3.org/2000/svg" xml:space="preserve" width="33.2386mm" height="33.2386mm" version="1.1" style="shape-rendering:geometricPrecision; text-rendering:geometricPrecision; image-rendering:optimizeQuality; fill-rule:evenodd; clip-rule:evenodd"
viewBox="0 0 428.73 428.73"
 xmlns:xlink="http://www.w3.org/1999/xlink"
 xmlns:xodm="http://www.corel.com/coreldraw/odm/2003">
 <defs>
  <style type="text/css">
   <![CDATA[
    .fil1 {fill:#1B0435}
    .fil0 {fill:#16001A}
    .fil13 {fill:url(#id0)}
    .fil10 {fill:url(#id1)}
    .fil12 {fill:url(#id2)}
    .fil9 {fill:url(#id3)}
    .fil4 {fill:url(#id4)}
    .fil6 {fill:url(#id5)}
    .fil3 {fill:url(#id6)}
    .fil11 {fill:url(#id7)}
    .fil7 {fill:url(#id8)}
    .fil2 {fill:url(#id9)}
    .fil5 {fill:url(#id10)}
    .fil8 {fill:url(#id11)}
   ]]>
  </style>
  <linearGradient id="id0" gradientUnits="userSpaceOnUse" x1="153.25" y1="268.76" x2="153.25" y2="180.52">
   <stop offset="0" style="stop-opacity:1; stop-color:#F84B72"/>
   <stop offset="1" style="stop-opacity:1; stop-color:#CE34B0"/>
  </linearGradient>
  <linearGradient id="id1" gradientUnits="userSpaceOnUse" xlink:href="#id0" x1="244.83" y1="293.32" x2="244.83" y2="155.97">
  </linearGradient>
  <linearGradient id="id2" gradientUnits="userSpaceOnUse" xlink:href="#id0" x1="275.48" y1="268.76" x2="275.48" y2="180.52">
  </linearGradient>
  <linearGradient id="id3" gradientUnits="userSpaceOnUse" xlink:href="#id0" x1="214.18" y1="331.54" x2="214.18" y2="117.74">
  </linearGradient>
  <linearGradient id="id4" gradientUnits="userSpaceOnUse" x1="336.13" y1="305.26" x2="323.81" y2="305.26">
   <stop offset="0" style="stop-opacity:1; stop-color:#76018E"/>
   <stop offset="1" style="stop-opacity:1; stop-color:#DA107C"/>
  </linearGradient>
  <linearGradient id="id5" gradientUnits="userSpaceOnUse" xlink:href="#id0" x1="122.27" y1="303.78" x2="75.54" y2="303.78">
  </linearGradient>
  <linearGradient id="id6" gradientUnits="userSpaceOnUse" xlink:href="#id0" x1="306.47" y1="303.78" x2="353.2" y2="303.78">
  </linearGradient>
  <linearGradient id="id7" gradientUnits="userSpaceOnUse" xlink:href="#id0" x1="183.91" y1="293.32" x2="183.91" y2="155.97">
  </linearGradient>
  <linearGradient id="id8" gradientUnits="userSpaceOnUse" xlink:href="#id4" x1="93.41" y1="305.26" x2="105.73" y2="305.26">
  </linearGradient>
  <linearGradient id="id9" gradientUnits="userSpaceOnUse" xlink:href="#id4" x1="397.76" y1="303.78" x2="329.65" y2="303.78">
  </linearGradient>
  <linearGradient id="id10" gradientUnits="userSpaceOnUse" xlink:href="#id4" x1="30.97" y1="303.78" x2="99.09" y2="303.78">
  </linearGradient>
  <linearGradient id="id11" gradientUnits="userSpaceOnUse" x1="122.17" y1="85.96" x2="306.4" y2="85.96">
   <stop offset="0" style="stop-opacity:1; stop-color:#2F006B"/>
   <stop offset="0.529412" style="stop-opacity:1; stop-color:#5A007A"/>
   <stop offset="1" style="stop-opacity:1; stop-color:#2F006B"/>
  </linearGradient>
 </defs>
 <g id="Layer_x0020_1">
  <metadata id="CorelCorpID_0Corel-Layer"/>
  <g id="_2569170744032">
   <path class="fil0" d="M107.18 0l214.37 0c59.19,-0 107.18,48 107.18,107.18l-0 214.37c0,59.18 -48,107.18 -107.18,107.18l-214.37 0c-59.18,0 -107.18,-48 -107.18,-107.18l0 -214.37c0,-59.19 48,-107.18 107.18,-107.18z"/>
   <g>
    <path class="fil1" d="M86.08 325.31l-20.03 0.62 -1.79 -97.35c0,-94.28 63.42,-170.81 150.21,-170.81 86.79,0 150.01,76.54 150.01,170.81l-0.46 110.08 -18.92 -2.7 -2.51 -107.37c0,-69.37 -64.25,-153.3 -128.12,-153.3 -63.86,0 -130.06,83.92 -130.06,153.3l1.68 96.73z"/>
    <path class="fil2" d="M329.65 245.35l34.67 0c15.57,0 28.9,11.18 31.61,26.51 3.81,21.25 3.78,42.71 -0.26,64.42 -2.7,14.97 -15.73,25.86 -30.95,25.86 -16.4,0.07 -35.07,0.07 -35.07,0.07l0 -116.85z"/>
    <path class="fil3" d="M329.83 245.34c-12.9,0 -23.36,26.19 -23.36,58.44 0,32.25 10.47,58.44 23.36,58.44 12.89,0 23.36,-26.19 23.36,-58.44 0,-32.25 -10.47,-58.44 -23.36,-58.44z"/>
    <path class="fil4" d="M329.97 281.12c3.4,0 6.16,10.82 6.16,24.14 0,13.32 -2.76,24.14 -6.16,24.14 -3.4,0 -6.16,-10.82 -6.16,-24.14 0,-13.32 2.76,-24.14 6.16,-24.14z"/>
    <path class="fil5" d="M99.08 245.35l-34.68 0c-15.57,0 -28.89,11.18 -31.6,26.51 -3.81,21.25 -3.78,42.71 0.26,64.42 2.7,14.97 15.74,25.86 30.95,25.86 16.4,0.07 35.07,0.07 35.07,0.07l0 -116.85z"/>
    <path class="fil6" d="M98.9 245.34c12.89,0 23.36,26.19 23.36,58.44 0,32.25 -10.47,58.44 -23.36,58.44 -12.89,0 -23.36,-26.19 -23.36,-58.44 0,-32.25 10.47,-58.44 23.36,-58.44z"/>
    <path class="fil7" d="M99.57 281.12c3.4,0 6.16,10.82 6.16,24.14 0,13.32 -2.76,24.14 -6.16,24.14 -3.4,0 -6.16,-10.82 -6.16,-24.14 0,-13.32 2.76,-24.14 6.16,-24.14z"/>
    <path class="fil8" d="M307.66 107.04c5.59,-12.91 -0.09,-29.04 -15.39,-37.55 -50.6,-28.61 -112.65,-27.75 -156.87,-0.66 -14.57,8.77 -19.76,24.41 -14.34,36.97 0.33,0.82 0.66,1.63 1,2.45 1.7,4.08 5.59,6.88 10.11,7.57 4.54,0.69 9.11,-0.8 12.36,-4.02 35.92,-37.02 99.74,-36.42 140.1,1.96 3.26,3 7.72,4.3 12.1,3.54 4.36,-0.78 8.09,-3.54 9.74,-7.52 0.43,-0.9 0.81,-1.82 1.19,-2.74z"/>
    <polygon class="fil9" points="204.66,331.55 223.69,331.55 223.69,117.74 204.66,117.74 "/>
    <polygon class="fil10" points="235.32,293.32 254.34,293.32 254.34,155.96 235.32,155.96 "/>
    <polygon class="fil11" points="174.39,293.32 193.42,293.32 193.42,155.96 174.39,155.96 "/>
    <polygon class="fil12" points="265.97,268.76 285,268.76 285,180.52 265.97,180.52 "/>
    <polygon class="fil13" points="143.74,268.76 162.77,268.76 162.77,180.52 143.74,180.52 "/>
   </g>
  </g>
 </g>
</svg>
